<mxfile host="app.diagrams.net" modified="2023-06-26T20:24:32.002Z" agent="Mozilla/5.0 (Macintosh; Intel Mac OS X 10_15_7) AppleWebKit/537.36 (KHTML, like Gecko) Chrome/114.0.0.0 Safari/537.36 Edg/114.0.1823.58" etag="StYJHwKjFUcXuq90yB6T" version="21.5.0" type="device">
  <diagram name="Page-1" id="N4poQZUCRJIgOqusgqXT">
    <mxGraphModel dx="1263" dy="784" grid="1" gridSize="10" guides="1" tooltips="1" connect="1" arrows="1" fold="1" page="1" pageScale="1" pageWidth="850" pageHeight="1100" math="0" shadow="0">
      <root>
        <mxCell id="0" />
        <mxCell id="1" parent="0" />
        <mxCell id="-pDCRGWogUtYBf0_griB-2" value="&lt;font style=&quot;font-size: 24px;&quot;&gt;Client&lt;/font&gt;" style="whiteSpace=wrap;html=1;aspect=fixed;" vertex="1" parent="1">
          <mxGeometry x="145" y="250" width="180" height="180" as="geometry" />
        </mxCell>
        <mxCell id="-pDCRGWogUtYBf0_griB-3" value="&lt;font style=&quot;font-size: 24px;&quot;&gt;Contractor&lt;/font&gt;" style="whiteSpace=wrap;html=1;aspect=fixed;" vertex="1" parent="1">
          <mxGeometry x="525" y="250" width="180" height="180" as="geometry" />
        </mxCell>
        <mxCell id="-pDCRGWogUtYBf0_griB-4" value="Balance" style="rounded=1;whiteSpace=wrap;html=1;" vertex="1" parent="1">
          <mxGeometry x="245" y="260" width="70" height="30" as="geometry" />
        </mxCell>
        <mxCell id="-pDCRGWogUtYBf0_griB-5" value="Balance" style="rounded=1;whiteSpace=wrap;html=1;" vertex="1" parent="1">
          <mxGeometry x="625" y="260" width="70" height="30" as="geometry" />
        </mxCell>
        <mxCell id="-pDCRGWogUtYBf0_griB-10" value="" style="endArrow=classic;html=1;rounded=0;exitX=0;exitY=0.667;exitDx=0;exitDy=0;exitPerimeter=0;" edge="1" parent="1">
          <mxGeometry width="50" height="50" relative="1" as="geometry">
            <mxPoint x="525" y="340.05999999999995" as="sourcePoint" />
            <mxPoint x="325" y="340" as="targetPoint" />
          </mxGeometry>
        </mxCell>
        <mxCell id="-pDCRGWogUtYBf0_griB-24" style="edgeStyle=orthogonalEdgeStyle;rounded=0;orthogonalLoop=1;jettySize=auto;html=1;exitX=1;exitY=0.5;exitDx=0;exitDy=0;entryX=0.5;entryY=1;entryDx=0;entryDy=0;" edge="1" parent="1" source="-pDCRGWogUtYBf0_griB-12" target="-pDCRGWogUtYBf0_griB-3">
          <mxGeometry relative="1" as="geometry" />
        </mxCell>
        <mxCell id="-pDCRGWogUtYBf0_griB-12" value="&lt;font style=&quot;font-size: 24px;&quot;&gt;Contract&lt;/font&gt;" style="rounded=0;whiteSpace=wrap;html=1;" vertex="1" parent="1">
          <mxGeometry x="335" y="490" width="177.5" height="180" as="geometry" />
        </mxCell>
        <mxCell id="-pDCRGWogUtYBf0_griB-13" value="&lt;font style=&quot;font-size: 10px;&quot;&gt;&lt;code style=&quot;color: var(--vscode-textPreformat-foreground); line-height: 1.357em; text-align: start;&quot;&gt;new&lt;/code&gt;,&lt;br&gt;&amp;nbsp;&lt;code style=&quot;color: var(--vscode-textPreformat-foreground); line-height: 1.357em; text-align: start;&quot;&gt;in_progress&lt;/code&gt;&lt;span style=&quot;color: rgb(212, 212, 212); text-align: start;&quot;&gt;,&lt;br&gt;&amp;nbsp;&lt;/span&gt;&lt;code style=&quot;color: var(--vscode-textPreformat-foreground); line-height: 1.357em; text-align: start;&quot;&gt;terminated&lt;/code&gt;&lt;/font&gt;" style="text;html=1;strokeColor=none;fillColor=none;align=center;verticalAlign=middle;whiteSpace=wrap;rounded=0;" vertex="1" parent="1">
          <mxGeometry x="390" y="600" width="60" height="30" as="geometry" />
        </mxCell>
        <mxCell id="-pDCRGWogUtYBf0_griB-21" value="" style="endArrow=none;html=1;rounded=0;entryX=0.439;entryY=1.017;entryDx=0;entryDy=0;entryPerimeter=0;" edge="1" parent="1" target="-pDCRGWogUtYBf0_griB-2">
          <mxGeometry width="50" height="50" relative="1" as="geometry">
            <mxPoint x="225" y="580" as="sourcePoint" />
            <mxPoint x="225" y="470" as="targetPoint" />
          </mxGeometry>
        </mxCell>
        <mxCell id="-pDCRGWogUtYBf0_griB-23" value="" style="endArrow=classic;html=1;rounded=0;entryX=-0.006;entryY=0.556;entryDx=0;entryDy=0;entryPerimeter=0;" edge="1" parent="1">
          <mxGeometry width="50" height="50" relative="1" as="geometry">
            <mxPoint x="225.53" y="579.5" as="sourcePoint" />
            <mxPoint x="334.4649999999999" y="579.5799999999999" as="targetPoint" />
          </mxGeometry>
        </mxCell>
      </root>
    </mxGraphModel>
  </diagram>
</mxfile>
